{
  "accessors": [
    {
      "bufferView": 2,
      "componentType": 5126,
      "count": 1283,
      "max": [
        2.9268808364868164,
        3.1978037357330322,
        0.774077832698822
      ],
      "min": [
        -2.92687726020813,
        -0.001614623935893178,
        -3.614969491958618
      ],
      "type": "VEC3"
    },
    {
      "bufferView": 2,
      "byteOffset": 15396,
      "componentType": 5126,
      "count": 1283,
      "max": [
        0.9993748068809509,
        0.9999349117279053,
        0.9997299909591675
      ],
      "min": [
        -0.9993752241134644,
        -0.9986472725868225,
        -0.9995225071907043
      ],
      "type": "VEC3"
    },
    {
      "bufferView": 1,
      "componentType": 5126,
      "count": 1283,
      "max": [
        0.9874849915504456,
        3.8446099758148193
      ],
      "min": [
        0.006453999783843756,
        0.007104999851435423
      ],
      "type": "VEC2"
    },
    {
      "bufferView": 0,
      "componentType": 5125,
      "count": 4602,
      "type": "SCALAR"
    },
    {
      "bufferView": 2,
      "byteOffset": 30792,
      "componentType": 5126,
      "count": 8,
      "max": [
        0.14042212069034576,
        2.7360031604766846,
        0.5405247211456299
      ],
      "min": [
        -0.14042888581752777,
        2.669832944869995,
        0.38576942682266235
      ],
      "type": "VEC3"
    },
    {
      "bufferView": 2,
      "byteOffset": 30888,
      "componentType": 5126,
      "count": 8,
      "max": [
        0.07310870289802551,
        0.4026928246021271,
        0.9535948038101196
      ],
      "min": [
        -0.430221289396286,
        0.301072895526886,
        -0.9535927772521973
      ],
      "type": "VEC3"
    },
    {
      "bufferView": 1,
      "byteOffset": 10264,
      "componentType": 5126,
      "count": 8,
      "max": [
        1.2412699460983276,
        1.842360019683838
      ],
      "min": [
        1.012619972229004,
        0.6189789772033691
      ],
      "type": "VEC2"
    },
    {
      "bufferView": 0,
      "byteOffset": 18408,
      "componentType": 5125,
      "count": 12,
      "type": "SCALAR"
    },
    {
      "bufferView": 2,
      "byteOffset": 30984,
      "componentType": 5126,
      "count": 8,
      "max": [
        0.14042212069034576,
        2.7360031604766846,
        0.5405247211456299
      ],
      "min": [
        -0.14042888581752777,
        2.669832944869995,
        0.38576942682266235
      ],
      "type": "VEC3"
    },
    {
      "bufferView": 2,
      "byteOffset": 31080,
      "componentType": 5126,
      "count": 8,
      "max": [
        0.07310870289802551,
        0.4026928246021271,
        0.9535948038101196
      ],
      "min": [
        -0.430221289396286,
        0.301072895526886,
        -0.9535927772521973
      ],
      "type": "VEC3"
    },
    {
      "bufferView": 1,
      "byteOffset": 10328,
      "componentType": 5126,
      "count": 8,
      "max": [
        1.2412699460983276,
        1.842360019683838
      ],
      "min": [
        1.012619972229004,
        0.6189789772033691
      ],
      "type": "VEC2"
    },
    {
      "bufferView": 0,
      "byteOffset": 18456,
      "componentType": 5125,
      "count": 12,
      "type": "SCALAR"
    },
    {
      "bufferView": 2,
      "byteOffset": 31176,
      "componentType": 5126,
      "count": 1283,
      "max": [
        2.9268808364868164,
        3.1978037357330322,
        0.774077832698822
      ],
      "min": [
        -2.92687726020813,
        -0.001614623935893178,
        -3.614969491958618
      ],
      "type": "VEC3"
    },
    {
      "bufferView": 2,
      "byteOffset": 46572,
      "componentType": 5126,
      "count": 1283,
      "max": [
        0.9993748068809509,
        0.9999349117279053,
        0.9997299909591675
      ],
      "min": [
        -0.9993752241134644,
        -0.9986472725868225,
        -0.9995225071907043
      ],
      "type": "VEC3"
    },
    {
      "bufferView": 1,
      "byteOffset": 10392,
      "componentType": 5126,
      "count": 1283,
      "max": [
        0.9874849915504456,
        3.8446099758148193
      ],
      "min": [
        0.006453999783843756,
        0.007104999851435423
      ],
      "type": "VEC2"
    },
    {
      "bufferView": 0,
      "byteOffset": 18504,
      "componentType": 5125,
      "count": 4602,
      "type": "SCALAR"
    }
  ],
  "asset": {
    "extras": {
      "author": "#3D $Resource$ (https://sketchfab.com/lopuh22721)",
      "license": "CC-BY-4.0 (http://creativecommons.org/licenses/by/4.0/)",
      "source": "https://sketchfab.com/3d-models/legendary-pokemon-reshiram-d9db1427f6624675b3cc9c2880e7fd21",
      "title": "Legendary Pokemon Reshiram"
    },
    "generator": "Sketchfab-12.68.0",
    "version": "2.0"
  },
  "bufferViews": [
    {
      "buffer": 0,
      "byteLength": 36912,
      "name": "floatBufferViews",
      "target": 34963
    },
    {
      "buffer": 0,
      "byteLength": 20656,
      "byteOffset": 36912,
      "byteStride": 8,
      "name": "floatBufferViews",
      "target": 34962
    },
    {
      "buffer": 0,
      "byteLength": 61968,
      "byteOffset": 57568,
      "byteStride": 12,
      "name": "floatBufferViews",
      "target": 34962
    }
  ],
  "buffers": [
    {
      "byteLength": 119536,
      "uri": "scene.bin"
    }
  ],
  "images": [
    {
      "uri": "textures/body_baseColor.png"
    },
    {
      "uri": "textures/material_baseColor.png"
    }
  ],
  "materials": [
    {
      "doubleSided": true,
      "name": "body",
      "pbrMetallicRoughness": {
        "baseColorTexture": {
          "index": 0
        },
        "metallicFactor": 0.0
      }
    },
    {
      "doubleSided": true,
      "name": "material",
      "pbrMetallicRoughness": {
        "baseColorTexture": {
          "index": 1
        },
        "metallicFactor": 0.0
      }
    }
  ],
  "meshes": [
    {
      "name": "Object_0",
      "primitives": [
        {
          "attributes": {
            "NORMAL": 1,
            "POSITION": 0,
            "TEXCOORD_0": 2
          },
          "indices": 3,
          "material": 0,
          "mode": 4
        }
      ]
    },
    {
      "name": "Object_1",
      "primitives": [
        {
          "attributes": {
            "NORMAL": 5,
            "POSITION": 4,
            "TEXCOORD_0": 6
          },
          "indices": 7,
          "material": 1,
          "mode": 4
        }
      ]
    },
    {
      "name": "Object_2",
      "primitives": [
        {
          "attributes": {
            "NORMAL": 9,
            "POSITION": 8,
            "TEXCOORD_0": 10
          },
          "indices": 11,
          "material": 1,
          "mode": 4
        }
      ]
    },
    {
      "name": "Object_3",
      "primitives": [
        {
          "attributes": {
            "NORMAL": 13,
            "POSITION": 12,
            "TEXCOORD_0": 14
          },
          "indices": 15,
          "material": 0,
          "mode": 4
        }
      ]
    }
  ],
  "nodes": [
    {
      "children": [
        1
      ],
      "matrix": [
        1.0,
        0.0,
        0.0,
        0.0,
        0.0,
        2.220446049250313e-16,
        -1.0,
        0.0,
        0.0,
        1.0,
        2.220446049250313e-16,
        0.0,
        0.0,
        0.0,
        0.0,
        1.0
      ],
      "name": "Sketchfab_model"
    },
    {
      "children": [
        2
      ],
      "matrix": [
        1.0,
        0.0,
        0.0,
        0.0,
        0.0,
        -4.371139006309477e-08,
        0.999999999999999,
        0.0,
        0.0,
        -0.999999999999999,
        -4.371139006309477e-08,
        0.0,
        0.0,
        0.0,
        0.0,
        1.0
      ],
      "name": "Collada visual scene group"
    },
    {
      "children": [
        3,
        4,
        5,
        6
      ],
      "name": "Object_2"
    },
    {
      "mesh": 0,
      "name": "Object_3"
    },
    {
      "mesh": 1,
      "name": "Object_4"
    },
    {
      "mesh": 2,
      "name": "Object_5"
    },
    {
      "mesh": 3,
      "name": "Object_6"
    }
  ],
  "samplers": [
    {
      "magFilter": 9729,
      "minFilter": 9987,
      "wrapS": 10497,
      "wrapT": 10497
    }
  ],
  "scene": 0,
  "scenes": [
    {
      "name": "Sketchfab_Scene",
      "nodes": [
        0
      ]
    }
  ],
  "textures": [
    {
      "sampler": 0,
      "source": 0
    },
    {
      "sampler": 0,
      "source": 1
    }
  ]
}
